<svg xmlns="http://www.w3.org/2000/svg" xmlns:xlink="http://www.w3.org/1999/xlink" id="Capa_1" x="0px" y="0px" viewBox="0 0 512 512" style="enable-background:new 0 0 512 512;" xml:space="preserve">
<style type="text/css">
	.st0{fill:#FFFFFF;}
</style>
<g>
	<g>
		<path class="st0" d="M110.4,183.3H72.7c-4.1,0-7.5,3.4-7.5,7.5s3.4,7.5,7.5,7.5h37.7c4.1,0,7.5-3.4,7.5-7.5    S114.5,183.3,110.4,183.3z"></path>
	</g>
</g>
<g>
	<g>
		<path class="st0" d="M439.3,183.3h-37.7c-4.1,0-7.5,3.4-7.5,7.5s3.4,7.5,7.5,7.5h37.7c4.1,0,7.5-3.4,7.5-7.5    S443.5,183.3,439.3,183.3z"></path>
	</g>
</g>
<g>
	<g>
		<path class="st0" d="M256,0c-4.1,0-7.5,3.4-7.5,7.5v37.7c0,4.1,3.4,7.5,7.5,7.5s7.5-3.4,7.5-7.5V7.5C263.5,3.4,260.1,0,256,0z"></path>
	</g>
</g>
<g>
	<g>
		<path class="st0" d="M136.4,259.9c-2.1-3.6-6.7-4.8-10.2-2.7L93.5,276c-3.6,2.1-4.8,6.7-2.7,10.2s6.7,4.8,10.2,2.7l32.6-18.8    C137.2,268.1,138.4,263.5,136.4,259.9z"></path>
	</g>
</g>
<g>
	<g>
		<path class="st0" d="M421.3,95.4c-2.1-3.6-6.7-4.8-10.2-2.7l-32.6,18.8c-3.6,2.1-4.8,6.7-2.7,10.2c2.1,3.6,6.7,4.8,10.2,2.7    l32.6-18.8C422.1,103.6,423.3,99,421.3,95.4z"></path>
	</g>
</g>
<g>
	<g>
		<path class="st0" d="M351.4,25.6c-3.6-2.1-8.2-0.8-10.2,2.7L322.3,61c-2.1,3.6-0.8,8.2,2.7,10.2c3.6,2.1,8.2,0.8,10.2-2.7    l18.8-32.6C356.2,32.2,355,27.6,351.4,25.6z"></path>
	</g>
</g>
<g>
	<g>
		<path class="st0" d="M189.7,61l-18.8-32.6c-2.1-3.6-6.7-4.8-10.2-2.7s-4.8,6.7-2.7,10.2l18.8,32.6c2.1,3.6,6.7,4.8,10.2,2.7    C190.5,69.1,191.7,64.5,189.7,61z"></path>
	</g>
</g>
<g>
	<g>
		<path class="st0" d="M418.5,276l-32.6-18.8c-3.6-2.1-8.2-0.8-10.2,2.7c-2.1,3.6-0.8,8.2,2.7,10.2L411,289    c3.6,2.1,8.2,0.8,10.2-2.7C423.3,282.7,422.1,278.1,418.5,276z"></path>
	</g>
</g>
<g>
	<g>
		<path class="st0" d="M133.6,111.5L101,92.7c-3.6-2.1-8.2-0.8-10.2,2.7c-2.1,3.6-0.8,8.2,2.7,10.2l32.6,18.8    c3.6,2.1,8.2,0.8,10.2-2.7C138.4,118.2,137.2,113.6,133.6,111.5z"></path>
	</g>
</g>
<g>
	<g>
		<path class="st0" d="M374.2,202.3c-4.1-0.7-8,2-8.7,6.1c-6.5,37.5-32.5,69.6-67.8,83.9c-4.7,1.9-7.7,6.4-7.7,11.5v25h-10.6v-91.4    h3c10,0,18.1-8.1,18.1-18.1v-13.5c0-10-8.1-18.1-18.1-18.1h-8.8c-4.1,0-7.5,3.4-7.5,7.5s3.4,7.5,7.5,7.5h8.8    c1.7,0,3.1,1.4,3.1,3.1v13.5c0,1.7-1.4,3.1-3.1,3.1h-52.7c-1.7,0-3.1-1.4-3.1-3.1v-13.5c0-1.7,1.4-3.1,3.1-3.1h8.8    c4.1,0,7.5-3.4,7.5-7.5s-3.4-7.5-7.5-7.5h-8.8c-10,0-18.1,8.1-18.1,18.1v13.5c0,10,8.1,18.1,18.1,18.1h3v91.4H222v-25.7    c0-4.7-2.8-8.9-7.3-10.7c-41.7-16.7-69.2-56.5-69.9-101.4c-1-60.8,47.7-111.5,108.4-112.9c57.5-1.4,106,40.5,113,97.4    c0.5,4.1,4.3,7,8.4,6.5c4.1-0.5,7-4.2,6.5-8.4C373.4,110,318.4,61.6,253,63.1c-69,1.6-124.2,59.1-123.1,128.2    c0.8,50.2,31,94.8,77.2,114.2V329c-8.7,1.3-15.4,8.8-15.4,17.9v13.5c0,10,8.1,18.1,18.1,18.1h1.9v50.1c0,0.9,0.2,2,0.6,3v0    c3.7,8.5,26.6,61.9,30.4,70.9c5.5,12.8,21.3,12.8,26.8,0l30.4-70.9c0.4-0.9,0.6-2,0.6-3v-50.1h1.9c10,0,18.1-8.1,18.1-18.1v-13.5    c0-9.1-6.7-16.6-15.4-17.9v-23.5c39.2-16.6,68-52.6,75.3-94.6C381,206.9,378.2,203,374.2,202.3z M247.7,237.4h16.7v91.4h-16.7    L247.7,237.4L247.7,237.4z M256,495.6l-10.8-25.1h21.5C258.6,489.6,260.3,485.6,256,495.6z M273.2,455.5h-34.4l-8.4-19.5    c15.9,0,35.2,0,51.1,0L273.2,455.5z M226.6,421.1v-42.6h21.9v42.6H226.6z M285.4,421.1h-21.9v-42.6h21.9V421.1z M305.4,346.9v13.5    c0,1.7-1.4,3.1-3.1,3.1c-18.5,0-73.1,0-92.6,0c-1.7,0-3.1-1.4-3.1-3.1v-13.5c0-1.7,1.4-3.1,3.1-3.1c9.9,0,80.6,0,92.6,0    C304,343.8,305.4,345.2,305.4,346.9z"></path>
	</g>
</g>
</svg>