<svg xmlns="http://www.w3.org/2000/svg" xmlns:xlink="http://www.w3.org/1999/xlink" id="Capa_1" x="0px" y="0px" viewBox="0 0 512 512" style="enable-background:new 0 0 512 512;" xml:space="preserve">
<style type="text/css">
	.st0{fill:#FFFFFF;}
	.st1{fill:none;stroke:#FFFFFF;stroke-width:5;stroke-miterlimit:10;}
</style>
<g>
	<g>
		<g>
			<path class="st0" d="M177.4,216.7h-20.6c-2.3,0-4.1,1.8-4.1,4.1s1.8,4.1,4.1,4.1h20.6c2.3,0,4.1-1.8,4.1-4.1     S179.6,216.7,177.4,216.7z"></path>
		</g>
	</g>
	<g>
		<g>
			<path class="st0" d="M357.1,216.7h-20.6c-2.3,0-4.1,1.8-4.1,4.1s1.8,4.1,4.1,4.1h20.6c2.3,0,4.1-1.8,4.1-4.1     S359.4,216.7,357.1,216.7z"></path>
		</g>
	</g>
	<g>
		<g>
			<path class="st0" d="M257,116.5c-2.3,0-4.1,1.8-4.1,4.1v20.6c0,2.3,1.8,4.1,4.1,4.1c2.3,0,4.1-1.8,4.1-4.1v-20.6     C261.1,118.4,259.2,116.5,257,116.5z"></path>
		</g>
	</g>
	<g>
		<g>
			<path class="st0" d="M191.6,258.5c-1.1-2-3.6-2.6-5.6-1.5l-17.8,10.3c-2,1.1-2.6,3.6-1.5,5.6c1.1,2,3.6,2.6,5.6,1.5l17.8-10.3     C192.1,263,192.7,260.5,191.6,258.5z"></path>
		</g>
	</g>
	<g>
		<g>
			<path class="st0" d="M347.3,168.7c-1.1-2-3.6-2.6-5.6-1.5l-17.8,10.3c-2,1.1-2.6,3.6-1.5,5.6c1.1,2,3.6,2.6,5.6,1.5l17.8-10.3     C347.7,173.1,348.4,170.6,347.3,168.7z"></path>
		</g>
	</g>
	<g>
		<g>
			<path class="st0" d="M309.1,130.5c-2-1.1-4.5-0.5-5.6,1.5l-10.3,17.8c-1.1,2-0.5,4.5,1.5,5.6c2,1.1,4.5,0.5,5.6-1.5l10.3-17.8     C311.7,134.1,311.1,131.6,309.1,130.5z"></path>
		</g>
	</g>
	<g>
		<g>
			<path class="st0" d="M220.7,149.8L210.4,132c-1.1-2-3.6-2.6-5.6-1.5s-2.6,3.6-1.5,5.6l10.3,17.8c1.1,2,3.6,2.6,5.6,1.5     C221.2,154.3,221.9,151.8,220.7,149.8z"></path>
		</g>
	</g>
	<g>
		<g>
			<path class="st0" d="M345.8,267.3L327.9,257c-2-1.1-4.5-0.5-5.6,1.5c-1.1,2-0.5,4.5,1.5,5.6l17.8,10.3c2,1.1,4.5,0.5,5.6-1.5     C348.4,271,347.7,268.5,345.8,267.3z"></path>
		</g>
	</g>
	<g>
		<g>
			<path class="st0" d="M190.1,177.5l-17.8-10.3c-2-1.1-4.5-0.5-5.6,1.5c-1.1,2-0.5,4.5,1.5,5.6l17.8,10.3c2,1.1,4.5,0.5,5.6-1.5     C192.7,181.1,192.1,178.6,190.1,177.5z"></path>
		</g>
	</g>
	<g>
		<g>
			<path class="st0" d="M321.5,227c-2.2-0.4-4.4,1.1-4.7,3.3c-3.6,20.5-17.7,38-37,45.8c-2.6,1-4.2,3.5-4.2,6.3v13.7h-5.8v-50h1.6     c5.5,0,9.9-4.4,9.9-9.9V229c0-5.5-4.4-9.9-9.9-9.9h-4.8c-2.3,0-4.1,1.8-4.1,4.1s1.8,4.1,4.1,4.1h4.8c0.9,0,1.7,0.8,1.7,1.7v7.4     c0,0.9-0.8,1.7-1.7,1.7h-28.8c-0.9,0-1.7-0.8-1.7-1.7V229c0-0.9,0.8-1.7,1.7-1.7h4.8c2.3,0,4.1-1.8,4.1-4.1s-1.8-4.1-4.1-4.1     h-4.8c-5.5,0-9.9,4.4-9.9,9.9v7.4c0,5.5,4.4,9.9,9.9,9.9h1.6v50h-5.8v-14c0-2.6-1.6-4.9-4-5.8c-22.8-9.1-37.8-30.9-38.2-55.4     c-0.5-33.2,26-60.9,59.2-61.7c31.4-0.7,57.9,22.1,61.7,53.2c0.3,2.2,2.3,3.8,4.6,3.6c2.2-0.3,3.8-2.3,3.6-4.6     c-4.3-34.8-34.3-61.3-70.1-60.4c-37.7,0.9-67.9,32.3-67.3,70c0.4,27.4,16.9,51.8,42.2,62.4v12.9c-4.8,0.7-8.4,4.8-8.4,9.8v7.4     c0,5.4,4.4,9.9,9.9,9.9h1v27.4c0,0.5,0.1,1.1,0.3,1.6v0c2,4.6,14.5,33.8,16.6,38.7c3,7,11.7,7,14.7,0l16.6-38.7     c0.2-0.5,0.3-1.1,0.3-1.6v-27.4h1c5.4,0,9.9-4.4,9.9-9.9v-7.4c0-5-3.7-9.1-8.4-9.8v-12.9c21.4-9,37.2-28.8,41.1-51.7     C325.2,229.5,323.7,227.4,321.5,227z M252.4,246.2h9.1v50h-9.1L252.4,246.2L252.4,246.2z M257,387.3l-5.9-13.7h11.8     C258.4,384.1,259.3,381.8,257,387.3z M266.4,365.4h-18.8l-4.6-10.6c8.7,0,19.2,0,27.9,0L266.4,365.4z M240.9,346.6v-23.3h12v23.3     H240.9z M273,346.6h-12v-23.3h12V346.6z M283.9,306.1v7.4c0,0.9-0.8,1.7-1.7,1.7c-10.1,0-39.9,0-50.6,0c-0.9,0-1.7-0.8-1.7-1.7     v-7.4c0-0.9,0.8-1.7,1.7-1.7c5.4,0,44,0,50.6,0C283.2,304.4,283.9,305.2,283.9,306.1z"></path>
		</g>
	</g>
</g>
<circle class="st1" cx="257" cy="256.4" r="245.6"></circle>
</svg>