<svg xmlns="http://www.w3.org/2000/svg" xmlns:xlink="http://www.w3.org/1999/xlink" id="Capa_1" x="0px" y="0px" viewBox="0 0 512 512" style="enable-background:new 0 0 512 512;" xml:space="preserve">
<style type="text/css">
	.st0{fill:#FFFFFF;}
</style>
<g>
	<g>
		<path class="st0" d="M32.8,315.3c-3.7,0.8-6,4-6,7.4c0,4.2,3.4,7.5,7.5,7.5c3.7,0,6.7-2.7,7.4-6C42.7,318.9,38,314.2,32.8,315.3z"></path>
	</g>
</g>
<g>
	<g>
		<path class="st0" d="M34.2,269.8c-4.1,0-7.5,3.4-7.5,7.5v19.7c0,4.1,3.4,7.5,7.5,7.5s7.5-3.4,7.5-7.5v-19.7    C41.7,273.1,38.4,269.8,34.2,269.8z"></path>
	</g>
</g>
<g>
	<g>
		<path class="st0" d="M374.3,286c-10.9,0-19.8,8.9-19.8,19.8s8.9,19.8,19.8,19.8s19.8-8.9,19.8-19.8S385.2,286,374.3,286z     M374.3,310.6c-2.6,0-4.8-2.1-4.8-4.8c0-2.6,2.1-4.8,4.8-4.8c2.6,0,4.8,2.1,4.8,4.8S376.9,310.6,374.3,310.6z"></path>
	</g>
</g>
<g>
	<g>
		<path class="st0" d="M504.9,52.4c-9.4-9.4-24.8-9.4-34.2,0c-10.4,10.4-81.5,81.5-93.8,93.8c-3.6-0.9-7.3-1.3-11-1.3H46.4    C20.8,144.9,0,165.7,0,191.3v229c0,25.6,20.8,46.4,46.4,46.4h142.2c4.1,0,7.5-3.4,7.5-7.5s-3.4-7.5-7.5-7.5H46.4    c-17.3,0-31.4-14.1-31.4-31.4v-229c0-17.3,14.1-31.4,31.4-31.4h316.8c-6.3,6.3-12.6,12.6-18.7,18.7c-2.6-1.9-5.9-3.1-9.3-3.1H68.4    c-8.7,0-15.8,7.1-15.8,15.8v229c0,8.7,7.1,15.8,15.8,15.8h266.8c8.7,0,15.8-7.1,15.8-15.8V240.5l46.2-46.2v96.6    c0,4.1,3.4,7.5,7.5,7.5c4.1,0,7.5-3.4,7.5-7.5v-99.6c0-3.6-0.4-7.2-1.3-10.7l94-94C514.4,77.2,514.4,61.8,504.9,52.4z M336,420.3    L336,420.3c0,0.4-0.4,0.8-0.8,0.8H68.4c-0.4,0-0.8-0.4-0.8-0.8v-229c0-0.4,0.4-0.8,0.8-0.8h264.1c-30.8,30.8-55,55-56.3,56.3    c-0.2,0.2-0.4,0.4-0.5,0.6c-0.5,0.6-0.9,1.3-1.2,2l-10.3,26.1h0c0,0,0,0,0,0.1c-0.2,0.4-0.3,0.8-0.4,1.2h-30    c-3.7-29.9-29.2-53.1-60.1-53.1c-33.4,0-60.6,27.2-60.6,60.6c0,30.9,23.2,56.4,53.1,60.1v32.8c0,6.8,5.5,12.3,12.3,12.3h88.2    c6.8,0,12.3-5.5,12.3-12.3V294c0,0,0.1,0,0.1,0c0.1,0,0.3-0.1,0.4-0.1c0.6-0.2,1.1-0.3,1.7-0.6c0.1,0,0.1,0,0.1-0.1l26.7-10.5    c1-0.4,1.8-0.9,2.5-1.7l25.5-25.5L336,420.3L336,420.3z M178.5,276.6c-6.8,0-12.3,5.5-12.3,12.3v40.2    c-21.6-3.6-38.1-22.4-38.1-44.9c0-25.1,20.4-45.6,45.6-45.6c22.6,0,41.4,16.5,44.9,38.1L178.5,276.6L178.5,276.6z M218.7,291.6    c-3.2,19.1-18.3,34.3-37.4,37.4v-37.4H218.7z M181.3,344.2L181.3,344.2c27.4-3.4,49.2-25.2,52.6-52.6H264v82.7h-82.7L181.3,344.2    L181.3,344.2z M301,269.3l-21.5,8.5l8.5-21.5c0.8-0.8,137.8-137.8,143.3-143.3l13,13C438,132.3,307.4,262.9,301,269.3z M455,115.4    l-13-13c4.1-4.1,8.1-8.1,11.7-11.7l13,13C462.4,107.9,464.7,105.6,455,115.4z M494.3,76L477.3,93l-13-13    c10.1-10.1,16.5-16.5,17.1-17.1c3.6-3.6,9.4-3.6,13,0C497.9,66.6,497.9,72.4,494.3,76z"></path>
	</g>
</g>
<g>
	<g>
		<path class="st0" d="M404.7,318.4c-4.1,0-7.5,3.4-7.5,7.5v94.4c0,17.3-14.1,31.4-31.4,31.4H223.6c-4.1,0-7.5,3.4-7.5,7.5    s3.4,7.5,7.5,7.5h142.2c25.6,0,46.4-20.8,46.4-46.4v-94.4C412.2,321.7,408.9,318.4,404.7,318.4z"></path>
	</g>
</g>
</svg>