<svg xmlns="http://www.w3.org/2000/svg" xmlns:xlink="http://www.w3.org/1999/xlink" id="Capa_1" x="0px" y="0px" viewBox="0 0 512 512" style="enable-background:new 0 0 512 512;" xml:space="preserve">
<style type="text/css">
	.st0{fill:#FFFFFF;}
	.st1{fill:none;stroke:#FFFFFF;stroke-width:5;stroke-miterlimit:10;}
</style>
<g>
	<g>
		<g>
			<path class="st0" d="M238,145c-0.5-2.1-2.3-3.5-4.2-3.5c-2.4,0-4.3,2-4.3,4.3c0,2.1,1.5,3.8,3.5,4.2     C236,150.6,238.6,147.9,238,145z"></path>
		</g>
	</g>
	<g>
		<g>
			<path class="st0" d="M264.1,145.8c0-2.4-1.9-4.3-4.3-4.3h-11.3c-2.4,0-4.3,1.9-4.3,4.3c0,2.4,1.9,4.3,4.3,4.3h11.3     C262.2,150.1,264.1,148.2,264.1,145.8z"></path>
		</g>
	</g>
	<g>
		<g>
			<path class="st0" d="M254.8,340.6c0-6.2-5.1-11.3-11.3-11.3c-6.2,0-11.3,5.1-11.3,11.3s5.1,11.3,11.3,11.3     C249.7,351.9,254.8,346.8,254.8,340.6z M240.7,340.6c0-1.5,1.2-2.7,2.7-2.7c1.5,0,2.7,1.2,2.7,2.7c0,1.5-1.2,2.7-2.7,2.7     C242,343.3,240.7,342.1,240.7,340.6z"></path>
		</g>
	</g>
	<g>
		<g>
			<path class="st0" d="M388.6,415.4c5.4-5.4,5.4-14.2,0-19.6c-6-6-46.7-46.7-53.8-53.8c0.5-2.1,0.8-4.2,0.8-6.3v-183     c0-14.7-11.9-26.6-26.6-26.6H177.9c-14.7,0-26.6,11.9-26.6,26.6v81.5c0,2.4,1.9,4.3,4.3,4.3s4.3-1.9,4.3-4.3v-81.5     c0-9.9,8.1-18,18-18h131.2c9.9,0,18,8.1,18,18v181.5c-3.6-3.6-7.2-7.2-10.7-10.7c1.1-1.5,1.7-3.4,1.7-5.3V165.4c0-5-4.1-9-9-9     H177.9c-5,0-9,4.1-9,9v152.8c0,5,4.1,9,9,9h103l26.5,26.5H252c-2.4,0-4.3,1.9-4.3,4.3c0,2.4,1.9,4.3,4.3,4.3h57     c2.1,0,4.1-0.2,6.1-0.7l53.8,53.8C374.4,420.8,383.2,420.8,388.6,415.4z M177.9,318.7L177.9,318.7c-0.2,0-0.4-0.2-0.4-0.4V165.4     c0-0.2,0.2-0.4,0.4-0.4h131.2c0.2,0,0.4,0.2,0.4,0.4v151.3c-17.7-17.7-31.5-31.5-32.2-32.2c-0.1-0.1-0.2-0.2-0.3-0.3     c-0.3-0.3-0.7-0.5-1.1-0.7l-14.9-5.9v0c0,0,0,0,0,0c-0.2-0.1-0.4-0.2-0.7-0.2v-17.2c17.1-2.1,30.4-16.7,30.4-34.4     c0-19.1-15.6-34.7-34.7-34.7c-17.7,0-32.3,13.3-34.4,30.4h-18.8c-3.9,0-7,3.1-7,7V279c0,3.9,3.1,7,7,7h47.6c0,0,0,0,0,0.1     c0,0.1,0,0.1,0.1,0.2c0.1,0.3,0.2,0.6,0.3,1c0,0,0,0.1,0,0.1l6,15.3c0.2,0.5,0.5,1,1,1.5l14.6,14.6L177.9,318.7L177.9,318.7z      M260.2,228.5c0-3.9-3.1-7-7-7h-23c2.1-12.4,12.8-21.8,25.7-21.8c14.4,0,26.1,11.7,26.1,26.1c0,12.9-9.5,23.7-21.8,25.7     L260.2,228.5L260.2,228.5z M251.6,251.5c-11-1.8-19.6-10.5-21.4-21.4h21.4V251.5z M221.5,230L221.5,230     c1.9,15.7,14.4,28.2,30.1,30.1v17.2h-47.4V230H221.5L221.5,230z M264.4,298.6l-4.9-12.3l12.3,4.9c0.5,0.5,79,79,82.1,82.1     l-7.4,7.4C342.8,377.1,268.1,302.3,264.4,298.6z M352.6,386.8l7.4-7.4c2.4,2.4,4.6,4.6,6.7,6.7l-7.4,7.4     C356.8,391.1,358.1,392.4,352.6,386.8z M375.1,409.3l-9.8-9.8l7.4-7.4c5.8,5.8,9.5,9.5,9.8,9.8c2.1,2.1,2.1,5.4,0,7.4     C380.5,411.4,377.2,411.4,375.1,409.3z"></path>
		</g>
	</g>
	<g>
		<g>
			<path class="st0" d="M236.3,358c0-2.4-1.9-4.3-4.3-4.3h-54.1c-9.9,0-18-8.1-18-18v-81.5c0-2.4-1.9-4.3-4.3-4.3     c-2.4,0-4.3,1.9-4.3,4.3v81.5c0,14.7,11.9,26.6,26.6,26.6H232C234.4,362.3,236.3,360.4,236.3,358z"></path>
		</g>
	</g>
</g>
<circle class="st1" cx="256" cy="256" r="245.6"></circle>
</svg>