<svg xmlns="http://www.w3.org/2000/svg" xmlns:xlink="http://www.w3.org/1999/xlink" id="Layer_1" x="0px" y="0px" viewBox="0 0 512 512" style="enable-background:new 0 0 512 512;" xml:space="preserve">
<style type="text/css">
	.st0{fill:#FFFFFF;}
</style>
<g>
	<g>
		<path class="st0" d="M494.9,367.1h-0.6v-44.8c0-111.8-78.1-208.6-186.5-232.7c-0.6-5.8-3-11.2-7.2-15.4    c-4.9-5.1-11.6-7.9-18.7-7.9h-51.8c-7.1,0-13.7,2.8-18.7,7.9c-4.1,4.3-6.6,9.6-7.2,15.4C95.8,113.7,17.7,210.6,17.7,322.4v44.8    h-0.6c-9.5,0-17.1,7.7-17.1,17.1v11.3c0,7.5,4.7,14,11.7,16.3c66.6,21.8,153.4,33.8,244.3,33.8s177.6-12,244.3-33.8    c7-2.3,11.7-8.9,11.7-16.3v-11.3C512,374.8,504.3,367.1,494.9,367.1z M223.3,85.8c1.8-1.8,4.2-2.9,6.8-2.9h51.8c2.6,0,5,1,6.8,2.9    c1.8,1.8,2.7,4.3,2.6,6.9l-7.6,221.2c-0.2,5.1-4.3,9.1-9.4,9.1h-36.6c-5.1,0-9.2-4-9.4-9.1l-7.6-221.2    C220.6,90.1,221.5,87.7,223.3,85.8z M495.4,395.6c0,0.2-0.1,0.5-0.3,0.6c-65,21.3-149.9,33-239.1,33s-174.1-11.7-239.1-33    c-0.2-0.1-0.3-0.3-0.3-0.5v-11.3c0-0.3,0.2-0.6,0.6-0.6h318.5c4.6,0,8.3-3.7,8.3-8.3c0-4.6-3.7-8.3-8.3-8.3H34.3v-44.8    c0-83.4,46.7-157.8,117.2-195.6l18,126c0.6,4.1,4.1,7.1,8.2,7.1c0.4,0,0.8,0,1.2-0.1c4.5-0.6,7.7-4.8,7-9.4l-18.8-131.3    c11.9-5.2,24.5-9.4,37.5-12.5l7.2,207.8c0.5,14.1,11.9,25.1,26,25.1h36.6c14.1,0,25.5-11,26-25.1l7.2-207.8    c13,3.1,25.5,7.3,37.5,12.5l-18.8,131.3c-0.6,4.5,2.5,8.7,7,9.4c0.4,0.1,0.8,0.1,1.2,0.1c4.1,0,7.6-3,8.2-7.1l18-126    C431,164.6,477.7,239,477.7,322.4v44.8h-53.6c-4.6,0-8.3,3.7-8.3,8.3c0,4.6,3.7,8.3,8.3,8.3h70.8c0.3,0,0.6,0.2,0.6,0.6    L495.4,395.6L495.4,395.6z"></path>
	</g>
</g>
<g>
	<g>
		<path class="st0" d="M388.7,367.1H371c-4.6,0-8.3,3.7-8.3,8.3c0,4.6,3.7,8.3,8.3,8.3h17.7c4.6,0,8.3-3.7,8.3-8.3    S393.3,367.1,388.7,367.1z"></path>
	</g>
</g>
<g>
	<g>
		<path class="st0" d="M193.4,303.5l-2.5-17.7c-0.6-4.5-4.8-7.7-9.4-7c-4.5,0.6-7.7,4.8-7,9.4l2.5,17.7c0.6,4.1,4.1,7.1,8.2,7.1    c0.4,0,0.8,0,1.2-0.1C190.9,312.2,194.1,308,193.4,303.5z"></path>
	</g>
</g>
<g>
	<g>
		<path class="st0" d="M330.5,278.7c-4.5-0.6-8.7,2.5-9.4,7l-2.5,17.7c-0.6,4.5,2.5,8.7,7,9.4c0.4,0.1,0.8,0.1,1.2,0.1    c4.1,0,7.6-3,8.2-7.1l2.5-17.7C338.2,283.6,335,279.4,330.5,278.7z"></path>
	</g>
</g>
</svg>