<svg xmlns="http://www.w3.org/2000/svg" xmlns:xlink="http://www.w3.org/1999/xlink" id="Layer_1" x="0px" y="0px" viewBox="0 0 512 512" style="enable-background:new 0 0 512 512;" xml:space="preserve">
<style type="text/css">
	.st0{fill:none;stroke:#FFFFFF;stroke-width:5;stroke-miterlimit:10;}
	.st1{fill:#FFFFFF;}
</style>
<circle class="st0" cx="257" cy="256.4" r="245.6"></circle>
<g>
	<g>
		<g>
			<path class="st1" d="M368.1,296.2h-0.3v-20.8c0-52-36.3-97.1-86.8-108.2c-0.3-2.7-1.4-5.2-3.3-7.2c-2.3-2.4-5.4-3.7-8.7-3.7     h-24.1c-3.3,0-6.4,1.3-8.7,3.7c-1.9,2-3.1,4.5-3.3,7.2c-50.5,11.2-86.8,56.2-86.8,108.2v20.8h-0.3c-4.4,0-8,3.6-8,8v5.2     c0,3.5,2.2,6.5,5.5,7.6c31,10.1,71.4,15.7,113.6,15.7s82.6-5.6,113.6-15.7c3.3-1.1,5.5-4.1,5.5-7.6v-5.2     C376.1,299.8,372.5,296.2,368.1,296.2z M241.8,165.3c0.8-0.9,1.9-1.3,3.1-1.3H269c1.2,0,2.3,0.5,3.1,1.3c0.8,0.9,1.3,2,1.2,3.2     l-3.5,102.9c-0.1,2.4-2,4.2-4.4,4.2h-17c-2.4,0-4.3-1.9-4.4-4.2l-3.5-102.9C240.5,167.3,240.9,166.2,241.8,165.3z M368.3,309.4     c0,0.1,0,0.2-0.1,0.3C338,319.6,298.5,325,257,325s-81-5.4-111.2-15.3c-0.1,0-0.1-0.2-0.1-0.3v-5.2c0-0.1,0.1-0.3,0.3-0.3H294     c2.1,0,3.9-1.7,3.9-3.9c0-2.1-1.7-3.9-3.9-3.9H153.8v-20.8c0-38.8,21.7-73.4,54.5-91l8.4,58.6c0.3,1.9,1.9,3.3,3.8,3.3     c0.2,0,0.4,0,0.6,0c2.1-0.3,3.6-2.3,3.3-4.4l-8.7-61.1c5.6-2.4,11.4-4.4,17.4-5.8l3.3,96.7c0.2,6.5,5.5,11.7,12.1,11.7h17     c6.5,0,11.9-5.1,12.1-11.7l3.3-96.7c6,1.4,11.9,3.4,17.4,5.8l-8.7,61.1c-0.3,2.1,1.2,4.1,3.3,4.4c0.2,0,0.4,0,0.6,0     c1.9,0,3.5-1.4,3.8-3.3l8.4-58.6c32.8,17.6,54.5,52.2,54.5,91v20.8h-25c-2.1,0-3.9,1.7-3.9,3.9c0,2.1,1.7,3.9,3.9,3.9h32.9     c0.1,0,0.3,0.1,0.3,0.3L368.3,309.4L368.3,309.4z"></path>
		</g>
	</g>
	<g>
		<g>
			<path class="st1" d="M318.7,296.2h-8.2c-2.1,0-3.9,1.7-3.9,3.9c0,2.1,1.7,3.9,3.9,3.9h8.2c2.1,0,3.9-1.7,3.9-3.9     C322.6,297.9,320.8,296.2,318.7,296.2z"></path>
		</g>
	</g>
	<g>
		<g>
			<path class="st1" d="M227.9,266.6l-1.2-8.2c-0.3-2.1-2.3-3.6-4.4-3.3c-2.1,0.3-3.6,2.3-3.3,4.4l1.2,8.2c0.3,1.9,1.9,3.3,3.8,3.3     c0.2,0,0.4,0,0.6,0C226.7,270.6,228.2,268.7,227.9,266.6z"></path>
		</g>
	</g>
	<g>
		<g>
			<path class="st1" d="M291.6,255.1c-2.1-0.3-4.1,1.2-4.4,3.3l-1.2,8.2c-0.3,2.1,1.2,4.1,3.3,4.4c0.2,0,0.4,0,0.6,0     c1.9,0,3.5-1.4,3.8-3.3l1.2-8.2C295.2,257.3,293.7,255.4,291.6,255.1z"></path>
		</g>
	</g>
</g>
</svg>