<svg xmlns="http://www.w3.org/2000/svg" xmlns:xlink="http://www.w3.org/1999/xlink" id="Capa_1" x="0px" y="0px" viewBox="0 0 512 512" style="enable-background:new 0 0 512 512;" xml:space="preserve">
<style type="text/css">
	.st0{fill:none;stroke:#FFFFFF;stroke-width:5;stroke-miterlimit:10;}
	.st1{fill:#FFFFFF;}
</style>
<circle class="st0" cx="256.5" cy="256.4" r="245.6"></circle>
<g>
	<g>
		<g>
			<path class="st1" d="M310.4,207.3h-53.9c-2.1,0-3.7,1.7-3.7,3.7s1.7,3.7,3.7,3.7h53.9c2.1,0,3.7-1.7,3.7-3.7     S312.5,207.3,310.4,207.3z"></path>
		</g>
	</g>
	<g>
		<g>
			<path class="st1" d="M297.3,226.4c-0.7-0.7-1.7-1.1-2.6-1.1c-1,0-2,0.4-2.6,1.1c-0.7,0.7-1.1,1.7-1.1,2.6c0,1,0.4,2,1.1,2.6     c0.7,0.7,1.7,1.1,2.6,1.1c1,0,2-0.4,2.6-1.1c0.7-0.7,1.1-1.7,1.1-2.6C298.4,228,298,227.1,297.3,226.4z"></path>
		</g>
	</g>
	<g>
		<g>
			<path class="st1" d="M259.1,167.6c-0.7-0.7-1.7-1.1-2.6-1.1c-1,0-2,0.4-2.6,1.1c-0.7,0.7-1.1,1.7-1.1,2.6s0.4,2,1.1,2.6     c0.7,0.7,1.7,1.1,2.6,1.1c1,0,2-0.4,2.6-1.1c0.7-0.7,1.1-1.7,1.1-2.6S259.8,168.3,259.1,167.6z"></path>
		</g>
	</g>
	<g>
		<g>
			<path class="st1" d="M278.9,225.3h-22.4c-2.1,0-3.7,1.7-3.7,3.7c0,2.1,1.7,3.7,3.7,3.7h22.4c2.1,0,3.7-1.7,3.7-3.7     C282.6,226.9,281,225.3,278.9,225.3z"></path>
		</g>
	</g>
	<g>
		<g>
			<path class="st1" d="M310.4,247.7h-53.9c-2.1,0-3.7,1.7-3.7,3.7s1.7,3.7,3.7,3.7h53.9c2.1,0,3.7-1.7,3.7-3.7     S312.5,247.7,310.4,247.7z"></path>
		</g>
	</g>
	<g>
		<g>
			<path class="st1" d="M297.3,266.8c-0.7-0.7-1.7-1.1-2.6-1.1c-1,0-2,0.4-2.6,1.1c-0.7,0.7-1.1,1.7-1.1,2.6s0.4,2,1.1,2.6     c0.7,0.7,1.7,1.1,2.6,1.1c1,0,2-0.4,2.6-1.1c0.7-0.7,1.1-1.7,1.1-2.6S298,267.5,297.3,266.8z"></path>
		</g>
	</g>
	<g>
		<g>
			<path class="st1" d="M278.9,265.7h-22.4c-2.1,0-3.7,1.7-3.7,3.7c0,2.1,1.7,3.7,3.7,3.7h22.4c2.1,0,3.7-1.7,3.7-3.7     C282.6,267.4,281,265.7,278.9,265.7z"></path>
		</g>
	</g>
	<g>
		<g>
			<path class="st1" d="M310.4,288.2h-53.9c-2.1,0-3.7,1.7-3.7,3.7c0,2.1,1.7,3.7,3.7,3.7h53.9c2.1,0,3.7-1.7,3.7-3.7     C314.1,289.8,312.5,288.2,310.4,288.2z"></path>
		</g>
	</g>
	<g>
		<g>
			<path class="st1" d="M297.3,307.2c-0.7-0.7-1.7-1.1-2.6-1.1c-1,0-2,0.4-2.6,1.1c-0.7,0.7-1.1,1.7-1.1,2.6c0,1,0.4,2,1.1,2.6     c0.7,0.7,1.7,1.1,2.6,1.1c1,0,2-0.4,2.6-1.1c0.7-0.7,1.1-1.7,1.1-2.6C298.4,308.9,298,307.9,297.3,307.2z"></path>
		</g>
	</g>
	<g>
		<g>
			<path class="st1" d="M278.9,306.1h-22.4c-2.1,0-3.7,1.7-3.7,3.7s1.7,3.7,3.7,3.7h22.4c2.1,0,3.7-1.7,3.7-3.7     S281,306.1,278.9,306.1z"></path>
		</g>
	</g>
	<g>
		<g>
			<path class="st1" d="M317.6,165H289c-4.1-3.9-9.7-6.4-15.9-6.4h-3.3c-2.5-5-7.7-8.2-13.4-8.2s-10.9,3.3-13.4,8.2h-3.3     c-6.1,0-11.7,2.4-15.9,6.4h-28.6c-10.1,0-18.3,8.2-18.3,18.3v140.6c0,10.1,8.2,18.3,18.3,18.3h122.3c10.1,0,18.3-8.2,18.3-18.3     V183.2C335.9,173.2,327.7,165,317.6,165z M239.8,166.1h5.8c1.7,0,3.2-1.1,3.6-2.7c0.9-3.2,3.9-5.5,7.2-5.5c3.4,0,6.3,2.3,7.2,5.5     c0.4,1.6,1.9,2.7,3.6,2.7h5.8c8.1,0,14.8,6.3,15.5,14.2h-64.3C225,172.4,231.7,166.1,239.8,166.1z M328.4,323.8     c0,5.9-4.8,10.8-10.8,10.8H195.4c-5.9,0-10.8-4.8-10.8-10.8V183.2c0-5.9,4.8-10.8,10.8-10.8h23.3c-1.2,2.8-1.9,5.9-1.9,9.2v2.4     c0,2.1,1.7,3.7,3.7,3.7h71.9c2.1,0,3.7-1.7,3.7-3.7v-2.4c0-3.3-0.7-6.4-1.9-9.2h23.4c5.9,0,10.8,4.8,10.8,10.8V323.8z"></path>
		</g>
	</g>
	<g>
		<g>
			<path class="st1" d="M232.7,206.4c-1.5-1.5-3.8-1.5-5.3,0l-16,16l-4.9-4.9c-1.5-1.5-3.8-1.5-5.3,0c-1.5,1.5-1.5,3.8,0,5.3     l7.6,7.6c0.7,0.7,1.7,1.1,2.6,1.1s1.9-0.4,2.6-1.1l18.7-18.7C234.1,210.2,234.1,207.8,232.7,206.4z"></path>
		</g>
	</g>
	<g>
		<g>
			<path class="st1" d="M223.5,288.2h-18c-2.1,0-3.7,1.7-3.7,3.7v18c0,2.1,1.7,3.7,3.7,3.7h18c2.1,0,3.7-1.7,3.7-3.7v-18     C227.3,289.8,225.6,288.2,223.5,288.2z M219.8,306.1h-10.5v-10.5h10.5V306.1z"></path>
		</g>
	</g>
	<g>
		<g>
			<path class="st1" d="M223.5,247.7h-18c-2.1,0-3.7,1.7-3.7,3.7v18c0,2.1,1.7,3.7,3.7,3.7h18c2.1,0,3.7-1.7,3.7-3.7v-18     C227.3,249.4,225.6,247.7,223.5,247.7z M219.8,265.7h-10.5v-10.5h10.5V265.7z"></path>
		</g>
	</g>
</g>
</svg>